<svg width="176" height="48" viewBox="0 0 176 48" fill="none" xmlns="http://www.w3.org/2000/svg">
<path d="M22.3528 28.2022L24.4196 24.4821C24.4196 24.4821 10.4482 24.3994 9.78685 24.4821C8.95577 24.5859 8.53364 24.9437 7.88542 25.4741C6.97603 26.2181 6.72803 27.3755 6.72803 28.6156C6.72803 29.6697 7.1319 30.3377 7.88542 31.0957C8.48677 31.7007 9.20816 32.0878 9.78685 32.1705C10.8539 32.3229 24.4196 32.1705 24.4196 32.1705L22.3528 28.2022Z" fill="#02076F" stroke="#02076F" stroke-width="0.165342"/>
<path d="M6.81082 16.2977V13.0735C6.81082 13.0735 24.2544 12.9081 25.4945 13.0735C26.5998 13.2209 27.2634 13.4588 28.1399 14.1482C29.2889 15.0519 29.8011 15.9305 30.0414 17.3724C30.2067 18.3644 30.0414 33.1625 30.0414 33.5759C30.0414 34.9824 29.2991 35.8121 28.2226 36.7174C27.2266 37.5551 26.1558 37.8748 25.0811 37.9575C24.0064 38.0401 9.62052 37.981 9.37363 37.9575C7.63754 37.7921 6.57421 37.1942 5.07474 36.056C3.91735 35.1775 3.50913 34.78 2.75995 33.6586C2.00586 32.5298 1.43723 31.6745 1.1892 30.3517C0.943529 29.0415 0.960657 28.511 1.10653 27.2929C1.2527 26.0722 1.37258 25.3667 1.85056 24.2341C2.3209 23.1196 2.83188 22.5707 3.65178 21.6901L3.66933 21.6713C4.48776 20.7922 5.00848 20.4204 6.06679 19.8525C7.29926 19.1911 8.06613 18.9322 9.4563 18.7778C10.2003 18.6951 24.4197 18.6124 24.4197 18.6124V22.1673C24.4197 22.1673 11.027 22.002 9.95232 22.1673C9.10446 22.2977 8.6378 22.499 7.88555 22.9113C6.78286 23.5157 6.1972 24.0223 5.48809 25.0608C4.71653 26.1907 4.51839 26.9169 4.49606 28.2849C4.47932 29.3108 4.50904 29.7377 4.90941 30.6824C5.40588 31.8538 5.75977 32.4456 6.81085 33.1625C7.67962 33.7551 8.29892 34.2373 9.37363 34.4026C10.4483 34.5679 26.4865 34.4026 26.4865 34.4026V16.2977H6.81082Z" fill="#02076F" stroke="#02076F" stroke-width="0.165342"/>
<path d="M39.4258 38.4297C33.0391 38.4297 29.0938 34.2695 29.0938 27.5117V27.4922C29.0938 20.793 33.0977 16.6328 39.3672 16.6328C45.0508 16.6328 48.6641 20.1289 48.8789 24.6602V24.7969H43.5859L43.5469 24.6211C43.1953 22.6289 41.8086 21.1055 39.4453 21.1055C36.6523 21.1055 34.8945 23.5078 34.8945 27.5117V27.5312C34.8945 31.6328 36.6523 33.957 39.4648 33.957C41.75 33.957 43.1758 32.5508 43.5664 30.4414L43.5859 30.2656H48.8984V30.3828C48.625 34.9531 45.0117 38.4297 39.4258 38.4297ZM54.6828 38.332C50.4836 38.332 47.6516 35.6953 47.6516 32.0039V31.9648C47.6516 28.1562 50.6008 25.9297 55.7961 25.5977L60.9719 25.2852V23.9961C60.9719 22.1406 59.7609 20.9883 57.5344 20.9883C55.4055 20.9883 54.1164 21.9844 53.843 23.332L53.8039 23.5078H48.5891L48.6086 23.2734C48.9211 19.4062 52.2414 16.6328 57.7687 16.6328C63.1789 16.6328 66.675 19.4258 66.675 23.6445V38H60.9719V34.875H60.8547C59.6633 37.0234 57.4367 38.332 54.6828 38.332ZM53.2961 31.7109C53.2961 33.2539 54.5656 34.1719 56.5383 34.1719C59.0969 34.1719 60.9719 32.5312 60.9719 30.3438V28.8398L56.6555 29.1133C54.4484 29.25 53.2961 30.1875 53.2961 31.6719V31.7109ZM74.9203 38.4297C69.6469 38.4297 66.4047 34.3281 66.4047 27.5312V27.5117C66.4047 20.6953 69.6469 16.6328 74.9203 16.6328C77.8891 16.6328 80.2328 18.1562 81.3656 20.6953H81.4828V9.81641H87.1859V38H81.4828V34.4258H81.3656C80.2523 36.9062 77.9477 38.4297 74.9203 38.4297ZM76.8344 33.7031C79.6078 33.7031 81.5023 31.3203 81.5023 27.5312V27.5117C81.5023 23.7422 79.5883 21.3594 76.8344 21.3594C74.0023 21.3594 72.2055 23.6836 72.2055 27.5117V27.5312C72.2055 31.3398 73.9828 33.7031 76.8344 33.7031ZM97.3258 38.4297C90.9195 38.4297 87.0328 34.2695 87.0328 27.5703V27.5508C87.0328 20.8906 90.9586 16.6328 97.0914 16.6328C103.224 16.6328 107.072 20.793 107.072 27.1211V28.8789H92.6578C92.7164 32.2188 94.5328 34.1719 97.443 34.1719C99.7867 34.1719 101.213 32.8828 101.623 31.7109L101.662 31.5938H106.896L106.838 31.8086C106.193 34.8945 103.302 38.4297 97.3258 38.4297ZM97.1891 20.8906C94.8453 20.8906 93.0875 22.4531 92.7164 25.2852H101.603C101.252 22.3945 99.5523 20.8906 97.1891 20.8906ZM106.821 38V17.0625H112.524V20.5781H112.641C113.501 18.1953 115.688 16.6328 118.501 16.6328C121.43 16.6328 123.559 18.1953 124.262 20.9492H124.38C125.317 18.3125 127.817 16.6328 130.884 16.6328C134.985 16.6328 137.739 19.4648 137.739 23.6836V38H132.036V25.1094C132.036 22.6875 130.825 21.3594 128.618 21.3594C126.45 21.3594 125.024 22.9414 125.024 25.2656V38H119.536V24.9336C119.536 22.6875 118.266 21.3594 116.157 21.3594C113.989 21.3594 112.524 23 112.524 25.3633V38H106.821ZM145.281 38.4297C140.672 38.4297 138.055 35.4805 138.055 30.5781V17.0625H143.758V29.3867C143.758 32.1211 145.047 33.7031 147.605 33.7031C150.164 33.7031 151.785 31.8281 151.785 29.0938V17.0625H157.488V38H151.785V34.543H151.668C150.594 36.9453 148.445 38.4297 145.281 38.4297ZM166.613 38.4297C160.812 38.4297 157.589 35.7539 157.14 31.7891L157.12 31.6133H162.687L162.726 31.7891C163.097 33.4297 164.327 34.3867 166.613 34.3867C168.761 34.3867 170.07 33.5469 170.07 32.1992V32.1797C170.07 31.0664 169.366 30.4219 167.316 29.9727L163.761 29.2305C159.698 28.3711 157.648 26.3398 157.648 23.2148V23.1953C157.648 19.2109 161.085 16.6328 166.417 16.6328C171.984 16.6328 175.089 19.582 175.226 23.2539V23.4492H169.972L169.952 23.293C169.757 21.7891 168.527 20.6562 166.417 20.6562C164.445 20.6562 163.214 21.5352 163.214 22.8828V22.9023C163.214 23.9766 163.937 24.6797 166.046 25.1289L169.601 25.8906C173.976 26.8086 175.773 28.5273 175.773 31.6133V31.6328C175.773 35.7344 172.003 38.4297 166.613 38.4297Z" fill="#02076F"/>
</svg>
